<?xml version="1.0" standalone="yes"?>
<svg xmlns="http://www.w3.org/2000/svg" width="500" height="500">
<path style="fill:#fdffff; stroke:none;" d="M0 0L0 500L500 500L500 0L0 0z"/>
<path style="fill:#5fe0e6; stroke:none;" d="M262 155C264.104 151.221 267.463 147.454 267.847 143C268.362 137.041 263.227 133.476 258.015 136.743C251.922 140.562 249.637 150.015 242.961 152.687C235.513 155.667 222.989 151.022 215 151C217.192 147.148 225.53 127.266 212.001 133.223C204.672 136.45 202.125 146.645 194 148.682C174.916 153.467 158.737 140.009 147 163C172.424 170.215 198.265 176.792 223 186.192C236.282 191.24 249.124 196.358 258 208C267.023 202.112 272.323 200.651 283 202C289.357 192.976 297.528 191.943 305.502 185.864C310.804 181.822 312.062 174.062 318.001 169.789C324.54 165.083 332.389 166.631 338.561 162.972C345.531 158.841 351.323 148.405 356.127 142C360.734 135.857 378.653 112.775 362.985 108.434C355.162 106.267 347.199 113.094 342 118.04C330.057 129.402 319.786 145.785 306.576 155.397C302.633 158.266 297.427 156.233 293 156.039C282.652 155.586 272.371 155 262 155z"/>
<path style="fill:#c1c1c1; stroke:none;" d="M364 129L365 130L364 129M121 136L121 137L126 137L121 136M115 137L116 138L115 137z"/>
<path style="fill:#505050; stroke:none;" d="M235 333L234 333L228 344L226 342L225 342C225.789 351.991 227.893 361.826 217.996 368.272C209.375 373.888 193.986 373.097 184 374.166C160.685 376.662 137.21 379.421 114 382.729C104.274 384.116 88.1796 389.141 79 384.543C65.3424 377.703 67.206 356.941 65.4236 344C60.7552 310.105 56.7673 276.003 52.9498 242C51.6927 230.803 45.7592 212.635 50.2284 202.001C55.5137 189.425 70.0979 191.603 81 189C86.5277 215.428 120.782 203.801 140 201.13C147.64 200.069 157.695 200.725 163.957 195.606C169.784 190.841 169.999 184.935 170 178L190 176L190 175L146 163L154 152L141 154C138.067 140.014 121.438 130.234 109.329 141.529C104.68 145.866 105.547 153.353 101.411 157.258C97.3307 161.111 90.0285 159.267 85.4676 163.533C81.477 167.266 81.6674 175.159 77.6821 177.821C74.0356 180.257 67.2466 179.682 63 180.285C53.576 181.625 45.2344 186.238 40.8318 195.001C33.5813 209.432 40.8302 231.699 42.7153 247C46.4105 276.994 49.8142 307.031 53.7184 337C55.5201 350.83 55.1934 366.777 59.7608 380C68.9262 406.534 106.607 395.185 127 392.271C151.247 388.807 175.675 386.067 200 383.155C213.688 381.516 227.258 380.747 234.457 367C239.938 356.533 235.474 344.04 235 333z"/>
<path style="fill:#949a9b; stroke:none;" d="M127 137L128 138L127 137z"/>
<path style="fill:#c1c1c1; stroke:none;" d="M128 137L129 138L128 137z"/>
<path style="fill:#949a9b; stroke:none;" d="M113 138L114 139L113 138M130 138L131 139L130 138z"/>
<path style="fill:#c1c1c1; stroke:none;" d="M358 138L359 139L358 138M111 139L112 140L111 139M132 139L133 140L132 139z"/>
<path style="fill:#949a9b; stroke:none;" d="M110 140L111 141L110 140M133 140L134 141L133 140z"/>
<path style="fill:#c1c1c1; stroke:none;" d="M204 140L205 141L204 140M252 142L253 143L252 142M355 142L356 143L355 142z"/>
<path style="fill:#949a9b; stroke:none;" d="M107 143L108 144L107 143M120 143L120 144L123 144L120 143z"/>
<path style="fill:#c1c1c1; stroke:none;" d="M106 144L107 145L106 144M118 144L119 145L118 144z"/>
<path style="fill:#fdffff; stroke:none;" d="M119.228 144.762C113.623 147.091 117.192 155.898 122.892 154.149C129.558 152.104 125.572 142.126 119.228 144.762z"/>
<path style="fill:#c1c1c1; stroke:none;" d="M124 144L125 145L124 144z"/>
<path style="fill:#949a9b; stroke:none;" d="M137 144L138 145L137 144z"/>
<path style="fill:#c1c1c1; stroke:none;" d="M125 145L126 146L125 145M138 145L139 146L138 145z"/>
<path style="fill:#949a9b; stroke:none;" d="M105 146L106 147L105 146z"/>
<path style="fill:#c1c1c1; stroke:none;" d="M116 146L117 147L116 146z"/>
<path style="fill:#949a9b; stroke:none;" d="M126 146L127 147L126 146z"/>
<path style="fill:#c1c1c1; stroke:none;" d="M249 146L250 147L249 146M104 147L105 148L104 147M139 147L140 148L139 147z"/>
<path style="fill:#949a9b; stroke:none;" d="M104 148L105 149L104 148M115.333 148.667L115.667 149.333L115.333 148.667z"/>
<path style="fill:#c1c1c1; stroke:none;" d="M180 148L181 149L180 148M313 148L314 149L313 148M140 149L141 150L140 149M103 150L104 151L103 150z"/>
<path style="fill:#949a9b; stroke:none;" d="M140.333 150.667L140.667 151.333L140.333 150.667M103.333 151.667L103.667 152.333L103.333 151.667z"/>
<path style="fill:#c1c1c1; stroke:none;" d="M126 151L127 152L126 151M223 151L224 152L223 151M348 151L349 152L348 151z"/>
<path style="fill:#949a9b; stroke:none;" d="M116 152L117 153L116 152z"/>
<path style="fill:#c1c1c1; stroke:none;" d="M145.667 152.333L146.333 152.667L145.667 152.333z"/>
<path style="fill:#949a9b; stroke:none;" d="M147 152L147 153L150 153L147 152M154 152L155 153L154 152z"/>
<path style="fill:#c1c1c1; stroke:none;" d="M232 152L233 153L232 152z"/>
<path style="fill:#949a9b; stroke:none;" d="M117 153L118 154L117 153M125 153L126 154L125 153M141.667 153.333L142.333 153.667L141.667 153.333z"/>
<path style="fill:#c1c1c1; stroke:none;" d="M241 153L242 154L241 153z"/>
<path style="fill:#949a9b; stroke:none;" d="M118 154L119 155L118 154z"/>
<path style="fill:#c1c1c1; stroke:none;" d="M119 154L120 155L119 154M123 154L124 155L123 154M279 155L280 156L279 155z"/>
<path style="fill:#949a9b; stroke:none;" d="M151 156L152 157L151 156z"/>
<path style="fill:#c1c1c1; stroke:none;" d="M297 156L298 157L297 156M306 156L307 157L306 156z"/>
<path style="fill:#949a9b; stroke:none;" d="M150 157L151 158L150 157z"/>
<path style="fill:#c1c1c1; stroke:none;" d="M343 157L344 158L343 157M96 158L96 159L99 159L96 158z"/>
<path style="fill:#949a9b; stroke:none;" d="M99.6667 158.333L100.333 158.667L99.6667 158.333z"/>
<path style="fill:#c1c1c1; stroke:none;" d="M91 159L92 160L91 159z"/>
<path style="fill:#949a9b; stroke:none;" d="M92.6667 159.333L93.3333 159.667L92.6667 159.333z"/>
<path style="fill:#c1c1c1; stroke:none;" d="M89 160L90 161L89 160M87 161L88 162L87 161z"/>
<path style="fill:#949a9b; stroke:none;" d="M147 161L148 162L147 161M86 162L87 163L86 162M146 162L147 163L146 162z"/>
<path style="fill:#c1c1c1; stroke:none;" d="M339 162L340 163L339 162z"/>
<path style="fill:#949a9b; stroke:none;" d="M147.667 163.333L148.333 163.667L147.667 163.333M84 164L85 165L84 164M151.667 164.333L152.333 164.667L151.667 164.333M283 202C279.338 201.32 275.74 200.835 272 201.043C242.379 202.695 261.58 240.938 259.813 256.961C259.391 260.79 255.045 263.756 253.214 267.004C250.25 272.259 250.066 280.368 252.133 286C255.805 296.003 264.177 295.208 270.49 301.51C275.501 306.512 276.586 314.635 282.04 319.907C290.635 328.214 303.126 332.43 315 330.561C319.872 329.794 324.796 326.757 329.576 326.437C333.591 326.168 337.827 328.818 342 328.957C346.537 329.107 350.703 326.436 355 326.647C362.045 326.992 369.261 333.636 377 334.557C382.282 335.186 389.018 331.511 393.91 333.324C405.196 337.507 409.965 347.173 424 342.779C436.025 339.015 443.161 327.321 441.826 315C441.435 311.387 437.751 305.899 438.665 302.514C439.775 298.406 446.473 293.807 448.91 290C456.261 278.515 457.482 263.747 452.91 251C449.939 242.718 439.584 236.441 437.637 228.961C436.59 224.939 439.624 219.188 439.91 215C440.666 203.968 436.265 191.857 427.91 184.465C418.299 175.961 404.334 172.765 392 176.44C381.965 179.43 375.323 185.929 364.105 182.972C360.218 181.948 358.78 176.888 356.471 174.04C353.025 169.79 348.195 166.994 343 165.44C332.171 162.199 319.767 165.089 312.39 174.04C309.643 177.374 308.723 182.414 305.502 185.273C297.944 191.98 287.963 191.359 283 202z"/>
<path style="fill:#c1c1c1; stroke:none;" d="M339 164L340 165L339 164z"/>
<path style="fill:#949a9b; stroke:none;" d="M83 165L84 166L83 165M155 165L156 166L155 165z"/>
<path style="fill:#c1c1c1; stroke:none;" d="M343.667 165.333L344.333 165.667L343.667 165.333M82 166L83 167L82 166z"/>
<path style="fill:#949a9b; stroke:none;" d="M159 166L160 167L159 166z"/>
<path style="fill:#c1c1c1; stroke:none;" d="M346 166L347 167L346 166z"/>
<path style="fill:#949a9b; stroke:none;" d="M163 167L164 168L163 167z"/>
<path style="fill:#c1c1c1; stroke:none;" d="M333 167L333 168L339 168L333 167M348 167L349 168L348 167z"/>
<path style="fill:#949a9b; stroke:none;" d="M81 168L82 169L81 168M166 168L167 169L166 168z"/>
<path style="fill:#c1c1c1; stroke:none;" d="M327.667 168.333L328.333 168.667L327.667 168.333z"/>
<path style="fill:#fdffff; stroke:none;" d="M360 189C354.253 172.122 336.575 160.667 320.004 172.638C314.094 176.907 313.624 184.031 308.698 188.487C305.348 191.517 299.889 191.797 296 194.094C291.288 196.876 288.884 201.416 284.675 204.473C276.188 210.637 262.16 200.259 258.395 217C256.721 224.444 262.08 228.444 263.417 235C264.191 238.795 261.972 243.082 262.054 247C262.132 250.724 264.322 254.314 264.223 257.907C264.125 261.46 259.743 263.505 257.803 266.093C255.1 269.7 253.852 274.523 254.108 279C254.908 293 266.141 290.952 273.437 298.513C276.208 301.385 276.886 306.534 278.88 310C283.486 318.006 291.03 323.941 300 326.239C311.067 329.075 318.742 323.844 329 322.569C334.176 321.927 339.322 325.53 345 324.815C348.307 324.398 351.739 321.669 355 321.933C361.24 322.437 367.156 329.532 374 330.674C380.733 331.799 388.91 327.285 394.816 328.812C398.433 329.748 400.869 334.822 404.015 336.867C413.339 342.926 426.768 340.37 433.725 331.985C438.26 326.519 439.618 318.75 437.699 312C436.83 308.943 433.153 304.514 434.302 301.3C435.486 297.991 440.28 295.611 442.532 292.961C447.551 287.055 450.712 279.662 451.711 272C453.137 261.049 450.301 249.763 443.471 241.004C440.762 237.531 434.88 234.728 433.241 230.7C432.048 227.769 434.665 223.859 435.319 221C436.63 215.278 436.765 207.595 434.895 202C429.172 184.877 411.462 175.135 394 179.514C387.967 181.027 383.175 186.431 377.424 187.628C371.409 188.881 366.539 186.563 360 189z"/>
<path style="fill:#c1c1c1; stroke:none;" d="M341.667 168.333L342.333 168.667L341.667 168.333M350 168L351 169L350 168z"/>
<path style="fill:#949a9b; stroke:none;" d="M169 169L170 170L169 169z"/>
<path style="fill:#c1c1c1; stroke:none;" d="M325 169L326 170L325 169M344 169L345 170L344 169M351 169L352 170L351 169z"/>
<path style="fill:#949a9b; stroke:none;" d="M80 170L81 171L80 170M173 170L174 171L173 170z"/>
<path style="fill:#c1c1c1; stroke:none;" d="M323 170L324 171L323 170M346 170L347 171L346 170z"/>
<path style="fill:#949a9b; stroke:none;" d="M176.667 171.333L177.333 171.667L176.667 171.333z"/>
<path style="fill:#c1c1c1; stroke:none;" d="M321 171L322 172L321 171M348 171L349 172L348 171z"/>
<path style="fill:#949a9b; stroke:none;" d="M180 172L181 173L180 172z"/>
<path style="fill:#c1c1c1; stroke:none;" d="M319 172L320 173L319 172M349 172L350 173L349 172M79 173L79 178L80 178L79 173z"/>
<path style="fill:#949a9b; stroke:none;" d="M183 173L184 174L183 173z"/>
<path style="fill:#c1c1c1; stroke:none;" d="M318 173L319 174L318 173z"/>
<path style="fill:#949a9b; stroke:none;" d="M187 174L188 175L187 174z"/>
<path style="fill:#c1c1c1; stroke:none;" d="M317 174L318 175L317 174M352 174L353 175L352 174M401 174L401 175L404 175L401 174z"/>
<path style="fill:#949a9b; stroke:none;" d="M190 175L191 176L190 175z"/>
<path style="fill:#c1c1c1; stroke:none;" d="M316 175L317 176L316 175M357 175L358 176L357 175M394.667 175.333L395.333 175.667L394.667 175.333M409.667 175.333L410.333 175.667L409.667 175.333z"/>
<path style="fill:#949a9b; stroke:none;" d="M184 176L184 177L187 177L184 176z"/>
<path style="fill:#c1c1c1; stroke:none;" d="M187.667 176.333L188.333 176.667L187.667 176.333z"/>
<path style="fill:#fdffff; stroke:none;" d="M81 190C71.8407 190.393 57.4103 190.387 52.0054 199.015C46.0367 208.544 51.3516 225.508 52.7184 236C56.708 266.625 60.5045 297.312 63.9498 328C65.3705 340.654 66.7697 353.401 68.5795 366C69.4977 372.392 70.2762 378.923 76.0934 382.856C84.7321 388.696 98.4203 384.126 108 383.05C135.683 379.942 163.267 375.504 191 372.925C201.528 371.946 218.235 372.588 223.95 361.985C233.564 344.147 212.122 321.521 203 308C162.698 317.951 117.781 312.132 78 324C76.5363 311.261 95.4722 313.523 105 312.282C134.867 308.391 165.389 306.501 195 301L195 300L157 283.329L131 285.834L74 293C73.0842 279.393 96.5549 282.079 107 280.718C124.588 278.427 142.551 277.277 160 274.111C163.978 273.389 167.04 270.53 171 270.032C185.752 268.175 201.223 271 216 271C210.781 249.089 210.499 225.328 207.424 203C206.192 194.061 206.627 182.334 196.996 177.97C191.864 175.644 177.26 175.489 172.603 179.179C167.503 183.221 169.218 192.469 161.996 197.005C155.855 200.863 147.938 200.47 141 201.425C123.507 203.834 85.102 216.283 81 190z"/>
<path style="fill:#c1c1c1; stroke:none;" d="M192.667 176.333L193.333 176.667L192.667 176.333M315 176L316 177L315 176M358 176L359 177L358 176M390.667 176.333L391.333 176.667L390.667 176.333M413.667 176.333L414.333 176.667L413.667 176.333z"/>
<path style="fill:#949a9b; stroke:none;" d="M176 177L176 178L179 178L176 177z"/>
<path style="fill:#c1c1c1; stroke:none;" d="M179.667 177.333L180.333 177.667L179.667 177.333M196 177L197 178L196 177M388 177L389 178L388 177M416 177L417 178L416 177M73.6667 178.333L74.3333 178.667L73.6667 178.333z"/>
<path style="fill:#949a9b; stroke:none;" d="M75 178L75 179L78 179L75 178M170 178L170 185L171 185L170 178z"/>
<path style="fill:#c1c1c1; stroke:none;" d="M171.667 178.333L172.333 178.667L171.667 178.333M198 178L199 179L198 178z"/>
<path style="fill:#949a9b; stroke:none;" d="M199 178L203 182L199 178z"/>
<path style="fill:#c1c1c1; stroke:none;" d="M355 178L356 179L355 178M359 178L360 179L359 178M386 178L387 179L386 178M396 178L396 179L400 179L396 178M405 178L405 179L409 179L405 178M419 178L420 179L419 178M65.6667 179.333L66.3333 179.667L65.6667 179.333z"/>
<path style="fill:#949a9b; stroke:none;" d="M67 179L67 180L70 180L67 179z"/>
<path style="fill:#505050; stroke:none;" d="M201 179C207.314 190.515 207.704 202.171 209.285 215C211.538 233.294 214.55 251.629 216 270L217 270L224.856 259L223.576 241L219.424 208L215.825 185.278L201 179z"/>
<path style="fill:#949a9b; stroke:none;" d="M203 179L204 180L203 179z"/>
<path style="fill:#c1c1c1; stroke:none;" d="M313 179L314 180L313 179M384 179L385 180L384 179M392.667 179.333L393.333 179.667L392.667 179.333M411.667 179.333L412.333 179.667L411.667 179.333M59 180L60 181L59 180z"/>
<path style="fill:#949a9b; stroke:none;" d="M60.6667 180.333L61.3333 180.667L60.6667 180.333M206 180L207 181L206 180z"/>
<path style="fill:#c1c1c1; stroke:none;" d="M356 180L357 181L356 180M360 180L361 181L360 180M382 180L383 181L382 180M390 180L391 181L390 180M414 180L415 181L414 180M422 180L423 181L422 180M55 181L56 182L55 181z"/>
<path style="fill:#949a9b; stroke:none;" d="M56 181L57 182L56 181M209 181L210 182L209 181z"/>
<path style="fill:#c1c1c1; stroke:none;" d="M312 181L313 182L312 181M387.667 181.333L388.333 181.667L387.667 181.333M417 181L418 182L417 181M53 182L54 183L53 182z"/>
<path style="fill:#949a9b; stroke:none;" d="M212 182L213 183L212 182z"/>
<path style="fill:#c1c1c1; stroke:none;" d="M357 182L358 183L357 182M361 182L362 183L361 182M379 182L380 183L379 182M419 182L420 183L419 182M425 182L426 183L425 182M51 183L52 184L51 183M203 183L204 184L203 183z"/>
<path style="fill:#949a9b; stroke:none;" d="M215 183L216 184L215 183z"/>
<path style="fill:#c1c1c1; stroke:none;" d="M311 183L312 184L311 183M363.667 183.333L364.333 183.667L363.667 183.333M373.667 183.333L374.333 183.667L373.667 183.333M378 183L379 184L378 183M384 183L385 184L384 183M420 183L421 184L420 183M426 183L427 184L426 183z"/>
<path style="fill:#949a9b; stroke:none;" d="M50 184L51 185L50 184M204 184L205 185L204 184M216.333 184.667L216.667 185.333L216.333 184.667z"/>
<path style="fill:#fdffff; stroke:none;" d="M217 184L226 258C238.328 248.926 251.701 232.849 254.329 218C255.011 214.144 258.31 209.946 256.716 206.001C251.941 194.184 228.321 186.683 217 184z"/>
<path style="fill:#c1c1c1; stroke:none;" d="M358 184L359 185L358 184M376.667 184.333L377.333 184.667L376.667 184.333M382 184L383 185L382 184M422 184L423 185L422 184M48 185L49 186L48 185M170.333 185.667L170.667 186.333L170.333 185.667M204 185L205 186L204 185M381 185L382 186L381 185M423 185L424 186L423 185z"/>
<path style="fill:#949a9b; stroke:none;" d="M47 186L48 187L47 186z"/>
<path style="fill:#c1c1c1; stroke:none;" d="M310.333 186.667L310.667 187.333L310.333 186.667M365 186L365 187L368 187L365 186M371.667 186.333L372.333 186.667L371.667 186.333M380 186L381 187L380 186M424 186L425 187L424 186z"/>
<path style="fill:#949a9b; stroke:none;" d="M46 187L47 188L46 187M205 187L206 188L205 187z"/>
<path style="fill:#c1c1c1; stroke:none;" d="M359 187L360 188L359 187M363 187L364 188L363 187M374 187L375 188L374 187z"/>
<path style="fill:#949a9b; stroke:none;" d="M169 188L170 189L169 188z"/>
<path style="fill:#c1c1c1; stroke:none;" d="M205 188L206 189L205 188M360.667 188.333L361.333 188.667L360.667 188.333M377 188L378 189L377 188M431 188L432 189L431 188z"/>
<path style="fill:#949a9b; stroke:none;" d="M44 189L45 190L44 189M79.6667 189.333L80.3333 189.667L79.6667 189.333z"/>
<path style="fill:#c1c1c1; stroke:none;" d="M217.333 189.667L217.667 190.333L217.333 189.667M308 189L309 190L308 189M432 189L433 190L432 189z"/>
<path style="fill:#949a9b; stroke:none;" d="M43 190L44 191L43 190M71.6667 190.333L72.3333 190.667L71.6667 190.333z"/>
<path style="fill:#c1c1c1; stroke:none;" d="M73 190L73 191L76 191L73 190z"/>
<path style="fill:#949a9b; stroke:none;" d="M168 190L169 191L168 190z"/>
<path style="fill:#c1c1c1; stroke:none;" d="M304.667 190.333L305.333 190.667L304.667 190.333M428 190L429 191L428 190M42 191L43 192L42 191z"/>
<path style="fill:#949a9b; stroke:none;" d="M63.6667 191.333L64.3333 191.667L63.6667 191.333z"/>
<path style="fill:#c1c1c1; stroke:none;" d="M65 191L65 192L68 192L65 191z"/>
<path style="fill:#949a9b; stroke:none;" d="M81.3333 191.667L81.6667 192.333L81.3333 191.667M206 191L206 194L207 194L206 191M217 191L218 192L217 191z"/>
<path style="fill:#c1c1c1; stroke:none;" d="M236 191L237 192L236 191M301 191L302 192L301 191M429 191L430 192L429 191z"/>
<path style="fill:#949a9b; stroke:none;" d="M59 192L60 193L59 192z"/>
<path style="fill:#c1c1c1; stroke:none;" d="M60 192L61 193L60 192M167 192L168 193L167 192M298 192L299 193L298 192M430 192L431 193L430 192M434 192L435 193L434 192z"/>
<path style="fill:#949a9b; stroke:none;" d="M41 193L42 194L41 193M57 193L58 194L57 193z"/>
<path style="fill:#c1c1c1; stroke:none;" d="M81 193L82 194L81 193z"/>
<path style="fill:#949a9b; stroke:none;" d="M166 193L167 194L166 193z"/>
<path style="fill:#c1c1c1; stroke:none;" d="M296 193L297 194L296 193z"/>
<path style="fill:#949a9b; stroke:none;" d="M165 194L166 195L165 194z"/>
<path style="fill:#c1c1c1; stroke:none;" d="M206.333 194.667L206.667 195.333L206.333 194.667M295 194L296 195L295 194M431 194L432 195L431 194M435 194L436 195L435 194z"/>
<path style="fill:#949a9b; stroke:none;" d="M40 195L41 196L40 195M54 195L55 196L54 195M82 195L83 196L82 195z"/>
<path style="fill:#c1c1c1; stroke:none;" d="M164 195L165 196L164 195M293 195L294 196L293 195z"/>
<path style="fill:#949a9b; stroke:none;" d="M53 196L54 197L53 196z"/>
<path style="fill:#c1c1c1; stroke:none;" d="M82 196L83 197L82 196M163 196L164 197L163 196M292 196L293 197L292 196M432 196L433 197L432 196M436 196L437 197L436 196z"/>
<path style="fill:#949a9b; stroke:none;" d="M39 197L40 198L39 197M52 197L53 198L52 197M83 197L84 198L83 197M161 197L162 198L161 197z"/>
<path style="fill:#c1c1c1; stroke:none;" d="M433.333 197.667L433.667 198.333L433.333 197.667M159 198L160 199L159 198M218 198L219 199L218 198M437 198L438 199L437 198M38 199L39 200L38 199M51 199L52 200L51 199M84 199L85 200L84 199z"/>
<path style="fill:#949a9b; stroke:none;" d="M153 199L153 200L156 200L153 199z"/>
<path style="fill:#c1c1c1; stroke:none;" d="M156 199L157 200L156 199z"/>
<path style="fill:#949a9b; stroke:none;" d="M207 199L207 202L208 202L207 199M218 199L219 200L218 199M38.3333 200.667L38.6667 201.333L38.3333 200.667M50 200L51 201L50 200M85 200L86 201L85 200M144 200L144 201L147 201L144 200z"/>
<path style="fill:#c1c1c1; stroke:none;" d="M147 200L147 201L150 201L147 200M434 200L435 201L434 200M438.333 200.667L438.667 201.333L438.333 200.667M50 201L51 202L50 201z"/>
<path style="fill:#949a9b; stroke:none;" d="M86 201L87 202L86 201M137.667 201.333L138.333 201.667L137.667 201.333z"/>
<path style="fill:#c1c1c1; stroke:none;" d="M139.667 201.333L140.333 201.667L139.667 201.333M287 201L288 202L287 201M87 202L88 203L87 202z"/>
<path style="fill:#949a9b; stroke:none;" d="M128 202L128 203L131 203L128 202z"/>
<path style="fill:#c1c1c1; stroke:none;" d="M131 202L131 203L134 203L131 202M207.333 202.667L207.667 203.333L207.333 202.667M286 202L287 203L286 202z"/>
<path style="fill:#949a9b; stroke:none;" d="M49 203L50 204L49 203M89 203L90 204L89 203M120 203L120 204L123 204L120 203z"/>
<path style="fill:#c1c1c1; stroke:none;" d="M123.667 203.333L124.333 203.667L123.667 203.333M435 203L436 204L435 203M37 204L37 207L38 207L37 204M49.3333 204.667L49.6667 205.333L49.3333 204.667M90 204L91 205L90 204z"/>
<path style="fill:#949a9b; stroke:none;" d="M113 204L113 205L116 205L113 204z"/>
<path style="fill:#c1c1c1; stroke:none;" d="M116.667 204.333L117.333 204.667L116.667 204.333M271 204L271 205L278 205L271 204M285 204L286 205L285 204M439 204L439 207L440 207L439 204M92 205L93 206L92 205z"/>
<path style="fill:#949a9b; stroke:none;" d="M93 205L94 206L93 205M104 205L104 206L107 206L104 205z"/>
<path style="fill:#c1c1c1; stroke:none;" d="M107 205L107 206L110 206L107 205M268 205L269 206L268 205M280 205L281 206L280 205M284 205L285 206L284 205M96 206L96 207L101 207L96 206M219 206L220 207L219 206M266 206L267 207L266 206M282.667 206.333L283.333 206.667L282.667 206.333M191 207L191 208L194 208L191 207z"/>
<path style="fill:#949a9b; stroke:none;" d="M208 207L208 210L209 210L208 207M219.333 207.667L219.667 208.333L219.333 207.667z"/>
<path style="fill:#c1c1c1; stroke:none;" d="M264 207L265 208L264 207M436 207L436 218L437 218L436 207M183.667 208.333L184.333 208.667L183.667 208.333z"/>
<path style="fill:#949a9b; stroke:none;" d="M185 208L185 209L188 209L185 208z"/>
<path style="fill:#505050; stroke:none;" d="M66 223L67 230L194 215L193 208L66 223z"/>
<path style="fill:#949a9b; stroke:none;" d="M193 208L193 211L194 211L193 208z"/>
<path style="fill:#c1c1c1; stroke:none;" d="M263 208L264 209L263 208M49 209L49 212L50 212L49 209M175.667 209.333L176.333 209.667L175.667 209.333z"/>
<path style="fill:#949a9b; stroke:none;" d="M177 209L177 210L180 210L177 209z"/>
<path style="fill:#c1c1c1; stroke:none;" d="M257 209L258 210L257 209M262 209L263 210L262 209M166 210L166 211L169 211L166 210z"/>
<path style="fill:#949a9b; stroke:none;" d="M169 210L169 211L172 211L169 210z"/>
<path style="fill:#c1c1c1; stroke:none;" d="M208.333 210.667L208.667 211.333L208.333 210.667M261 210L262 211L261 210M158 211L158 212L161 212L158 211z"/>
<path style="fill:#949a9b; stroke:none;" d="M161.667 211.333L162.333 211.667L161.667 211.333z"/>
<path style="fill:#c1c1c1; stroke:none;" d="M256 211L257 212L256 211M260 211L261 212L260 211z"/>
<path style="fill:#949a9b; stroke:none;" d="M49.3333 212.667L49.6667 213.333L49.3333 212.667z"/>
<path style="fill:#c1c1c1; stroke:none;" d="M150 212L150 213L153 213L150 212z"/>
<path style="fill:#949a9b; stroke:none;" d="M153.667 212.333L154.333 212.667L153.667 212.333M38 213L39 214L38 213z"/>
<path style="fill:#c1c1c1; stroke:none;" d="M142 213L142 214L145 214L142 213z"/>
<path style="fill:#949a9b; stroke:none;" d="M145.667 213.333L146.333 213.667L145.667 213.333z"/>
<path style="fill:#c1c1c1; stroke:none;" d="M255 213L256 214L255 213M259 213L260 214L259 213M38.3333 214.667L38.6667 215.333L38.3333 214.667M134.667 214.333L135.333 214.667L134.667 214.333z"/>
<path style="fill:#949a9b; stroke:none;" d="M136 214L136 215L139 215L136 214z"/>
<path style="fill:#c1c1c1; stroke:none;" d="M194 214L195 215L194 214M220.333 214.667L220.667 215.333L220.333 214.667M126.667 215.333L127.333 215.667L126.667 215.333z"/>
<path style="fill:#949a9b; stroke:none;" d="M128 215L128 216L131 216L128 215M188.667 215.333L189.333 215.667L188.667 215.333z"/>
<path style="fill:#c1c1c1; stroke:none;" d="M190 215L190 216L193 216L190 215M258 215L259 216L258 215M118.667 216.333L119.333 216.667L118.667 216.333z"/>
<path style="fill:#949a9b; stroke:none;" d="M120 216L120 217L123 217L120 216M180.667 216.333L181.333 216.667L180.667 216.333z"/>
<path style="fill:#c1c1c1; stroke:none;" d="M182 216L182 217L185 217L182 216z"/>
<path style="fill:#949a9b; stroke:none;" d="M209.333 216.667L209.667 217.333L209.333 216.667M220 216L221 217L220 216z"/>
<path style="fill:#c1c1c1; stroke:none;" d="M254 216L254 219L255 219L254 216M50 217L50 220L51 220L50 217M110.667 217.333L111.333 217.667L110.667 217.333z"/>
<path style="fill:#949a9b; stroke:none;" d="M112 217L112 218L115 218L112 217M172.667 217.333L173.333 217.667L172.667 217.333z"/>
<path style="fill:#c1c1c1; stroke:none;" d="M174 217L174 218L177 218L174 217M102.667 218.333L103.333 218.667L102.667 218.333z"/>
<path style="fill:#949a9b; stroke:none;" d="M104 218L104 219L107 219L104 218M163 218L163 219L166 219L163 218z"/>
<path style="fill:#c1c1c1; stroke:none;" d="M166 218L166 219L169 219L166 218M209 218L209 221L210 221L209 218M257.333 218.667L257.667 219.333L257.333 218.667M439 218L439 221L440 221L439 218M94.6667 219.333L95.3333 219.667L94.6667 219.333z"/>
<path style="fill:#949a9b; stroke:none;" d="M96 219L96 220L99 220L96 219M155 219L155 220L158 220L155 219z"/>
<path style="fill:#c1c1c1; stroke:none;" d="M158.667 219.333L159.333 219.667L158.667 219.333z"/>
<path style="fill:#949a9b; stroke:none;" d="M50.3333 220.667L50.6667 221.333L50.3333 220.667z"/>
<path style="fill:#c1c1c1; stroke:none;" d="M85 220L85 221L88 221L85 220z"/>
<path style="fill:#949a9b; stroke:none;" d="M88.6667 220.333L89.3333 220.667L88.6667 220.333M147 220L147 221L150 221L147 220z"/>
<path style="fill:#c1c1c1; stroke:none;" d="M150.667 220.333L151.333 220.667L150.667 220.333M435.333 220.667L435.667 221.333L435.333 220.667z"/>
<path style="fill:#949a9b; stroke:none;" d="M39 221L40 222L39 221z"/>
<path style="fill:#c1c1c1; stroke:none;" d="M77 221L77 222L80 222L77 221z"/>
<path style="fill:#949a9b; stroke:none;" d="M80.6667 221.333L81.3333 221.667L80.6667 221.333M139 221L139 222L142 222L139 221z"/>
<path style="fill:#c1c1c1; stroke:none;" d="M142.667 221.333L143.333 221.667L142.667 221.333M39.3333 222.667L39.6667 223.333L39.3333 222.667M69 222L69 223L72 223L69 222z"/>
<path style="fill:#949a9b; stroke:none;" d="M72.6667 222.333L73.3333 222.667L72.6667 222.333M131 222L131 223L134 223L131 222z"/>
<path style="fill:#c1c1c1; stroke:none;" d="M134.667 222.333L135.333 222.667L134.667 222.333M221.333 222.667L221.667 223.333L221.333 222.667z"/>
<path style="fill:#949a9b; stroke:none;" d="M123 223L123 224L126 224L123 223z"/>
<path style="fill:#c1c1c1; stroke:none;" d="M126.667 223.333L127.333 223.667L126.667 223.333M254.333 223.667L254.667 224.333L254.333 223.667M438 223L439 224L438 223z"/>
<path style="fill:#949a9b; stroke:none;" d="M115 224L115 225L118 225L115 224z"/>
<path style="fill:#c1c1c1; stroke:none;" d="M118.667 224.333L119.333 224.667L118.667 224.333z"/>
<path style="fill:#949a9b; stroke:none;" d="M210.333 224.667L210.667 225.333L210.333 224.667M221 224L222 225L221 224z"/>
<path style="fill:#c1c1c1; stroke:none;" d="M258.333 224.667L258.667 225.333L258.333 224.667M434 224L435 225L434 224z"/>
<path style="fill:#949a9b; stroke:none;" d="M107.667 225.333L108.333 225.667L107.667 225.333z"/>
<path style="fill:#c1c1c1; stroke:none;" d="M109 225L109 226L112 226L109 225z"/>
<path style="fill:#5fe0e6; stroke:none;" d="M254 225C245.711 236.182 236.312 246.437 227.271 257C223.274 261.67 218.982 268.878 212.999 271.103C209.177 272.524 204.937 271.111 201 271.015C183.32 270.582 166.75 265.664 155 282L185 296.244L194.579 302.225L192 311L202 306C207.594 317.825 217.62 335.989 228 344C230.837 338.885 236.439 333.017 236.776 327C237.518 313.773 225.627 297.321 229.171 284.424C230.489 279.625 236.775 274.6 240.086 271C252.642 257.346 266.399 243.326 254 225z"/>
<path style="fill:#c1c1c1; stroke:none;" d="M51.3333 226.667L51.6667 227.333L51.3333 226.667z"/>
<path style="fill:#949a9b; stroke:none;" d="M99.6667 226.333L100.333 226.667L99.6667 226.333z"/>
<path style="fill:#c1c1c1; stroke:none;" d="M101 226L101 227L104 227L101 226M210 226L210 229L211 229L210 226M433 226L434 227L433 226M437 226L438 227L437 226z"/>
<path style="fill:#949a9b; stroke:none;" d="M66 227L69 231L69 230L66 227M91.6667 227.333L92.3333 227.667L91.6667 227.333z"/>
<path style="fill:#c1c1c1; stroke:none;" d="M93 227L93 228L96 228L93 227M259 227L260 228L259 227z"/>
<path style="fill:#949a9b; stroke:none;" d="M51.3333 228.667L51.6667 229.333L51.3333 228.667M83.6667 228.333L84.3333 228.667L83.6667 228.333z"/>
<path style="fill:#c1c1c1; stroke:none;" d="M85.6667 228.333L86.3333 228.667L85.6667 228.333M432 228L433 229L432 228M436 228L437 229L436 228z"/>
<path style="fill:#949a9b; stroke:none;" d="M40 229L41 230L40 229M74 229L74 230L77 230L74 229z"/>
<path style="fill:#c1c1c1; stroke:none;" d="M77.6667 229.333L78.3333 229.667L77.6667 229.333M260 229L261 230L260 229M40.3333 230.667L40.6667 231.333L40.3333 230.667M66 230L67 231L66 230M69.6667 230.333L70.3333 230.667L69.6667 230.333M222.333 230.667L222.667 231.333L222.333 230.667M437 230L438 231L437 230M432 231L433 232L432 231M438 231L439 232L438 231z"/>
<path style="fill:#949a9b; stroke:none;" d="M211 232L211 235L212 235L211 232M222 232L223 233L222 232z"/>
<path style="fill:#c1c1c1; stroke:none;" d="M439 232L440 233L439 232M435 233L436 234L435 233M52.3333 234.667L52.6667 235.333L52.3333 234.667M264.333 234.667L264.667 235.333L264.333 234.667M436 234L437 235L436 234M211.333 235.667L211.667 236.333L211.333 235.667M443 235L444 236L443 235z"/>
<path style="fill:#949a9b; stroke:none;" d="M52 236L52 239L53 239L52 236z"/>
<path style="fill:#c1c1c1; stroke:none;" d="M439 236L440 237L439 236z"/>
<path style="fill:#949a9b; stroke:none;" d="M41 237L42 238L41 237z"/>
<path style="fill:#c1c1c1; stroke:none;" d="M263 237L264 238L263 237M440 237L441 238L440 237M41.3333 238.667L41.6667 239.333L41.3333 238.667M195 238L195 239L197 241L198 241L195 238M223.333 238.667L223.667 239.333L223.333 238.667M441 238L442 239L441 238M187.667 239.333L188.333 239.667L187.667 239.333z"/>
<path style="fill:#949a9b; stroke:none;" d="M189.667 239.333L190.333 239.667L189.667 239.333z"/>
<path style="fill:#505050; stroke:none;" d="M70 254C70.3831 265.668 91.7325 258.744 100 257.715C132.095 253.722 165.66 246.268 198 246L197 239L70 254z"/>
<path style="fill:#c1c1c1; stroke:none;" d="M446 239L447 240L446 239M178 240L178 241L181 241L178 240z"/>
<path style="fill:#949a9b; stroke:none;" d="M181.667 240.333L182.333 240.667L181.667 240.333M212 240L212 243L213 243L212 240M223 240L224 241L223 240z"/>
<path style="fill:#c1c1c1; stroke:none;" d="M262.333 240.667L262.667 241.333L262.333 240.667M447 240L448 241L447 240M170 241L170 242L173 242L170 241z"/>
<path style="fill:#949a9b; stroke:none;" d="M173.667 241.333L174.333 241.667L173.667 241.333M197.333 241.667L197.667 242.333L197.333 241.667z"/>
<path style="fill:#c1c1c1; stroke:none;" d="M53.3333 242.667L53.6667 243.333L53.3333 242.667M162 242L162 243L165 243L162 242z"/>
<path style="fill:#949a9b; stroke:none;" d="M165.667 242.333L166.333 242.667L165.667 242.333z"/>
<path style="fill:#c1c1c1; stroke:none;" d="M444 242L445 243L444 242M154.667 243.333L155.333 243.667L154.667 243.333z"/>
<path style="fill:#949a9b; stroke:none;" d="M156 243L156 244L159 244L156 243z"/>
<path style="fill:#c1c1c1; stroke:none;" d="M212.333 243.667L212.667 244.333L212.333 243.667M445 243L446 244L445 243M449 243L450 244L449 243z"/>
<path style="fill:#949a9b; stroke:none;" d="M53 244L53 247L54 247L53 244z"/>
<path style="fill:#c1c1c1; stroke:none;" d="M146.667 244.333L147.333 244.667L146.667 244.333z"/>
<path style="fill:#949a9b; stroke:none;" d="M148 244L148 245L151 245L148 244z"/>
<path style="fill:#c1c1c1; stroke:none;" d="M238 244L239 245L238 244z"/>
<path style="fill:#949a9b; stroke:none;" d="M42.3333 245.667L42.6667 246.333L42.3333 245.667z"/>
<path style="fill:#c1c1c1; stroke:none;" d="M138.667 245.333L139.333 245.667L138.667 245.333z"/>
<path style="fill:#949a9b; stroke:none;" d="M140 245L140 246L143 246L140 245z"/>
<path style="fill:#c1c1c1; stroke:none;" d="M446 245L447 246L446 245M450 245L451 246L450 245M130.667 246.333L131.333 246.667L130.667 246.333z"/>
<path style="fill:#949a9b; stroke:none;" d="M132 246L132 247L135 247L132 246M190.667 246.333L191.333 246.667L190.667 246.333z"/>
<path style="fill:#c1c1c1; stroke:none;" d="M192 246L192 247L195 247L192 246M224.333 246.667L224.667 247.333L224.333 246.667M42 247L43 248L42 247M122.667 247.333L123.333 247.667L122.667 247.333z"/>
<path style="fill:#949a9b; stroke:none;" d="M124 247L124 248L127 248L124 247M182.667 247.333L183.333 247.667L182.667 247.333z"/>
<path style="fill:#c1c1c1; stroke:none;" d="M184 247L184 248L187 248L184 247M261 247L262 248L261 247M447 247L448 248L447 247M451 247L452 248L451 247M114.667 248.333L115.333 248.667L114.667 248.333z"/>
<path style="fill:#949a9b; stroke:none;" d="M116 248L116 249L119 249L116 248M173 248L173 249L176 249L173 248z"/>
<path style="fill:#c1c1c1; stroke:none;" d="M176.667 248.333L177.333 248.667L176.667 248.333z"/>
<path style="fill:#949a9b; stroke:none;" d="M213 248L213 251L214 251L213 248M224 248L225 249L224 248z"/>
<path style="fill:#c1c1c1; stroke:none;" d="M105 249L105 250L108 250L105 249z"/>
<path style="fill:#949a9b; stroke:none;" d="M108.667 249.333L109.333 249.667L108.667 249.333M165 249L165 250L168 250L165 249z"/>
<path style="fill:#c1c1c1; stroke:none;" d="M168.667 249.333L169.333 249.667L168.667 249.333M448 249L449 250L448 249M452 249L453 250L452 249M54.3333 250.667L54.6667 251.333L54.3333 250.667M97 250L97 251L100 251L97 250z"/>
<path style="fill:#949a9b; stroke:none;" d="M100.667 250.333L101.333 250.667L100.667 250.333M157 250L157 251L160 251L157 250z"/>
<path style="fill:#c1c1c1; stroke:none;" d="M160.667 250.333L161.333 250.667L160.667 250.333M258.333 250.667L258.667 251.333L258.333 250.667M89 251L89 252L92 252L89 251z"/>
<path style="fill:#949a9b; stroke:none;" d="M92.6667 251.333L93.3333 251.667L92.6667 251.333M149 251L149 252L152 252L149 251z"/>
<path style="fill:#c1c1c1; stroke:none;" d="M152.667 251.333L153.333 251.667L152.667 251.333M213.333 251.667L213.667 252.333L213.333 251.667M262.333 251.667L262.667 252.333L262.333 251.667M449 251L450 252L449 251M453.333 251.667L453.667 252.333L453.333 251.667z"/>
<path style="fill:#949a9b; stroke:none;" d="M54 252L54 255L55 255L54 252z"/>
<path style="fill:#c1c1c1; stroke:none;" d="M81 252L81 253L84 253L81 252z"/>
<path style="fill:#949a9b; stroke:none;" d="M84.6667 252.333L85.3333 252.667L84.6667 252.333M141 252L141 253L144 253L141 252z"/>
<path style="fill:#c1c1c1; stroke:none;" d="M144.667 252.333L145.333 252.667L144.667 252.333M231 252L232 253L231 252M73.6667 253.333L74.3333 253.667L73.6667 253.333z"/>
<path style="fill:#949a9b; stroke:none;" d="M75 253L75 254L78 254L75 253M133 253L133 254L136 254L133 253z"/>
<path style="fill:#c1c1c1; stroke:none;" d="M136.667 253.333L137.333 253.667L136.667 253.333z"/>
<path style="fill:#949a9b; stroke:none;" d="M43 254L44 255L43 254z"/>
<path style="fill:#c1c1c1; stroke:none;" d="M69.3333 254.667L69.6667 255.333L69.3333 254.667z"/>
<path style="fill:#949a9b; stroke:none;" d="M125.667 254.333L126.333 254.667L125.667 254.333z"/>
<path style="fill:#c1c1c1; stroke:none;" d="M127 254L127 255L130 255L127 254M254 254L255 255L254 254M259 254L260 255L259 254M450 254L451 255L450 254M43 255L44 256L43 255z"/>
<path style="fill:#949a9b; stroke:none;" d="M117.667 255.333L118.333 255.667L117.667 255.333z"/>
<path style="fill:#c1c1c1; stroke:none;" d="M119 255L119 256L122 256L119 255M225 255L226 256L225 255M454.333 255.667L454.667 256.333L454.333 255.667z"/>
<path style="fill:#949a9b; stroke:none;" d="M108 256L108 257L111 257L108 256z"/>
<path style="fill:#c1c1c1; stroke:none;" d="M111 256L111 257L114 257L111 256z"/>
<path style="fill:#949a9b; stroke:none;" d="M214 256L214 259L215 259L214 256M225.333 256.667L225.667 257.333L225.333 256.667z"/>
<path style="fill:#c1c1c1; stroke:none;" d="M260.333 256.667L260.667 257.333L260.333 256.667M264 256L265 257L264 256z"/>
<path style="fill:#949a9b; stroke:none;" d="M101.667 257.333L102.333 257.667L101.667 257.333z"/>
<path style="fill:#c1c1c1; stroke:none;" d="M103.667 257.333L104.333 257.667L103.667 257.333M451.333 257.667L451.667 258.333L451.333 257.667M55 258L55 261L56 261L55 258z"/>
<path style="fill:#949a9b; stroke:none;" d="M92 258L92 259L95 259L92 258z"/>
<path style="fill:#c1c1c1; stroke:none;" d="M95.6667 258.333L96.3333 258.667L95.6667 258.333z"/>
<path style="fill:#949a9b; stroke:none;" d="M84 259L84 260L87 260L84 259z"/>
<path style="fill:#c1c1c1; stroke:none;" d="M87.6667 259.333L88.3333 259.667L87.6667 259.333M214.333 259.667L214.667 260.333L214.333 259.667z"/>
<path style="fill:#949a9b; stroke:none;" d="M225 259L226 260L225 259z"/>
<path style="fill:#c1c1c1; stroke:none;" d="M259 259L260 260L259 259M455 259L455 263L456 263L455 259z"/>
<path style="fill:#949a9b; stroke:none;" d="M70 260L71 261L70 260M76 260L76 261L79 261L76 260z"/>
<path style="fill:#c1c1c1; stroke:none;" d="M79.6667 260.333L80.3333 260.667L79.6667 260.333z"/>
<path style="fill:#949a9b; stroke:none;" d="M224 260L225 261L224 260z"/>
<path style="fill:#c1c1c1; stroke:none;" d="M258 260L259 261L258 260M264 260L265 261L264 260z"/>
<path style="fill:#949a9b; stroke:none;" d="M55.3333 261.667L55.6667 262.333L55.3333 261.667z"/>
<path style="fill:#c1c1c1; stroke:none;" d="M70 261L70 262L73 262L70 261M262 261L263 262L262 261z"/>
<path style="fill:#949a9b; stroke:none;" d="M44 262L45 263L44 262z"/>
<path style="fill:#c1c1c1; stroke:none;" d="M256 262L257 263L256 262M261 262L262 263L261 262M44.3333 263.667L44.6667 264.333L44.3333 263.667M255 263L256 264L255 263M452 263L452 270L453 270L452 263M254 264L255 265L254 264z"/>
<path style="fill:#949a9b; stroke:none;" d="M215.333 265.667L215.667 266.333L215.333 265.667z"/>
<path style="fill:#c1c1c1; stroke:none;" d="M56 266L56 269L57 269L56 266z"/>
<path style="fill:#949a9b; stroke:none;" d="M219 266L220 267L219 266z"/>
<path style="fill:#c1c1c1; stroke:none;" d="M253 266L254 267L253 266M257 266L258 267L257 266M215 267L215 270L216 270L215 267z"/>
<path style="fill:#949a9b; stroke:none;" d="M218 267L219 268L218 267z"/>
<path style="fill:#c1c1c1; stroke:none;" d="M252 267L253 268L252 267M256 267L257 268L256 267z"/>
<path style="fill:#949a9b; stroke:none;" d="M217 268L218 269L217 268M56.3333 269.667L56.6667 270.333L56.3333 269.667z"/>
<path style="fill:#c1c1c1; stroke:none;" d="M168 269L169 270L168 269M198 269L198 270L201 270L198 269M255 269L256 270L255 269M455 269L455 273L456 273L455 269z"/>
<path style="fill:#949a9b; stroke:none;" d="M45 270L46 271L45 270z"/>
<path style="fill:#c1c1c1; stroke:none;" d="M183 270L183 271L187 271L183 270M189 270L189 271L193 271L189 270z"/>
<path style="fill:#949a9b; stroke:none;" d="M193.667 270.333L194.333 270.667L193.667 270.333z"/>
<path style="fill:#505050; stroke:none;" d="M195 270L195 271L201 271L195 270z"/>
<path style="fill:#c1c1c1; stroke:none;" d="M251 270L252 271L251 270M45.3333 271.667L45.6667 272.333L45.3333 271.667M206 271L206 272L213 272L206 271M254.333 272.667L254.667 273.333L254.333 272.667M237 273L238 274L237 273M250 273L250 282L251 282L250 273M451 273L451 276L452 276L451 273M57 274L57 277L58 277L57 274M157 274L157 275L160 275L157 274z"/>
<path style="fill:#949a9b; stroke:none;" d="M160 274L161 276L162 276L163 274L160 274z"/>
<path style="fill:#c1c1c1; stroke:none;" d="M149.667 275.333L150.333 275.667L149.667 275.333z"/>
<path style="fill:#949a9b; stroke:none;" d="M151 275L151 276L154 276L151 275z"/>
<path style="fill:#505050; stroke:none;" d="M74 285L74 292C93.8965 291.589 114.214 287.171 134 284.95C144.489 283.772 154.155 284.029 161 275L74 285z"/>
<path style="fill:#c1c1c1; stroke:none;" d="M141.667 276.333L142.333 276.667L141.667 276.333z"/>
<path style="fill:#949a9b; stroke:none;" d="M143 276L143 277L146 277L143 276z"/>
<path style="fill:#c1c1c1; stroke:none;" d="M454.333 276.667L454.667 277.333L454.333 276.667z"/>
<path style="fill:#949a9b; stroke:none;" d="M57 277L57 280L58 280L57 277z"/>
<path style="fill:#c1c1c1; stroke:none;" d="M132 277L132 278L135 278L132 277z"/>
<path style="fill:#949a9b; stroke:none;" d="M135 277L135 278L138 278L135 277M46 278L47 279L46 278z"/>
<path style="fill:#c1c1c1; stroke:none;" d="M124 278L124 279L127 279L124 278z"/>
<path style="fill:#949a9b; stroke:none;" d="M127.667 278.333L128.333 278.667L127.667 278.333z"/>
<path style="fill:#c1c1c1; stroke:none;" d="M450 278L451 279L450 278M46.3333 279.667L46.6667 280.333L46.3333 279.667M116.667 279.333L117.333 279.667L116.667 279.333z"/>
<path style="fill:#949a9b; stroke:none;" d="M118 279L118 280L121 280L118 279M156 279L157 280L156 279z"/>
<path style="fill:#c1c1c1; stroke:none;" d="M108.667 280.333L109.333 280.667L108.667 280.333z"/>
<path style="fill:#949a9b; stroke:none;" d="M110 280L110 281L113 281L110 280M155 280L156 281L155 280z"/>
<path style="fill:#c1c1c1; stroke:none;" d="M453 280L454 281L453 280M100.667 281.333L101.333 281.667L100.667 281.333z"/>
<path style="fill:#949a9b; stroke:none;" d="M102 281L102 282L105 282L102 281z"/>
<path style="fill:#c1c1c1; stroke:none;" d="M449 281L450 282L449 281M91 282L91 283L94 283L91 282z"/>
<path style="fill:#949a9b; stroke:none;" d="M94.6667 282.333L95.3333 282.667L94.6667 282.333M153.667 282.333L154.333 282.667L153.667 282.333z"/>
<path style="fill:#c1c1c1; stroke:none;" d="M155 282L156 283L155 282M254 282L255 283L254 282M58.3333 283.667L58.6667 284.333L58.3333 283.667M83.6667 283.333L84.3333 283.667L83.6667 283.333z"/>
<path style="fill:#949a9b; stroke:none;" d="M85 283L85 284L88 284L85 283M145.667 283.333L146.333 283.667L145.667 283.333z"/>
<path style="fill:#c1c1c1; stroke:none;" d="M147 283L147 284L150 284L147 283M158 283L159 284L158 283M448 283L449 284L448 283M452 283L453 284L452 283M75.6667 284.333L76.3333 284.667L75.6667 284.333z"/>
<path style="fill:#949a9b; stroke:none;" d="M77 284L77 285L80 285L77 284M137.667 284.333L138.333 284.667L137.667 284.333z"/>
<path style="fill:#c1c1c1; stroke:none;" d="M139 284L139 285L142 285L139 284z"/>
<path style="fill:#949a9b; stroke:none;" d="M228 284L229 285L228 284z"/>
<path style="fill:#c1c1c1; stroke:none;" d="M251.333 284.667L251.667 285.333L251.333 284.667z"/>
<path style="fill:#949a9b; stroke:none;" d="M58 285L58 288L59 288L58 285M73 285L74 286L73 285M129.667 285.333L130.333 285.667L129.667 285.333z"/>
<path style="fill:#c1c1c1; stroke:none;" d="M131 285L131 286L134 286L131 285M255 285L256 286L255 285M447 285L448 286L447 285M451 285L452 286L451 285z"/>
<path style="fill:#949a9b; stroke:none;" d="M47 286L48 287L47 286z"/>
<path style="fill:#c1c1c1; stroke:none;" d="M73 286L73 289L74 289L73 286z"/>
<path style="fill:#949a9b; stroke:none;" d="M121.667 286.333L122.333 286.667L121.667 286.333z"/>
<path style="fill:#c1c1c1; stroke:none;" d="M123.667 286.333L124.333 286.667L123.667 286.333M47.3333 287.667L47.6667 288.333L47.3333 287.667z"/>
<path style="fill:#949a9b; stroke:none;" d="M112 287L112 288L115 288L112 287z"/>
<path style="fill:#c1c1c1; stroke:none;" d="M115.667 287.333L116.333 287.667L115.667 287.333M229.333 287.667L229.667 288.333L229.333 287.667M252 287L253 288L252 287M256 287L257 288L256 287M446 287L447 288L446 287M450 287L451 288L450 287z"/>
<path style="fill:#949a9b; stroke:none;" d="M104 288L104 289L107 289L104 288z"/>
<path style="fill:#c1c1c1; stroke:none;" d="M107.667 288.333L108.333 288.667L107.667 288.333z"/>
<path style="fill:#949a9b; stroke:none;" d="M96 289L96 290L99 290L96 289z"/>
<path style="fill:#c1c1c1; stroke:none;" d="M99.6667 289.333L100.333 289.667L99.6667 289.333z"/>
<path style="fill:#949a9b; stroke:none;" d="M229.333 289.667L229.667 290.333L229.333 289.667z"/>
<path style="fill:#c1c1c1; stroke:none;" d="M253 289L254 290L253 289M449 289L450 290L449 289z"/>
<path style="fill:#949a9b; stroke:none;" d="M88 290L88 291L91 291L88 290z"/>
<path style="fill:#c1c1c1; stroke:none;" d="M91.6667 290.333L92.3333 290.667L91.6667 290.333M254 290L255 291L254 290M258 290L259 291L258 290M444 290L445 291L444 290M448 290L449 291L448 290M59.3333 291.667L59.6667 292.333L59.3333 291.667z"/>
<path style="fill:#949a9b; stroke:none;" d="M80 291L80 292L83 292L80 291z"/>
<path style="fill:#c1c1c1; stroke:none;" d="M83.6667 291.333L84.3333 291.667L83.6667 291.333M175 291L176 292L175 291M259 291L260 292L259 291M443 291L444 292L443 291M74 292L74 293L77 293L74 292M447 292L448 293L447 292z"/>
<path style="fill:#949a9b; stroke:none;" d="M59 293L59 296L60 296L59 293z"/>
<path style="fill:#c1c1c1; stroke:none;" d="M256 293L257 294L256 293M262 293L263 294L262 293M446 293L447 294L446 293z"/>
<path style="fill:#949a9b; stroke:none;" d="M48 294L49 295L48 294z"/>
<path style="fill:#c1c1c1; stroke:none;" d="M230 294L231 295L230 294M257 294L258 295L257 294M264 294L265 295L264 294M445 294L446 295L445 294M48.3333 295.667L48.6667 296.333L48.3333 295.667M266 295L267 296L266 295M260 296L261 297L260 296M269.667 296.333L270.333 296.667L269.667 296.333M437 297L438 298L437 297M263.667 298.333L264.333 298.667L263.667 298.333M274.333 298.667L274.667 299.333L274.333 298.667M436 298L437 299L436 298M60.3333 299.667L60.6667 300.333L60.3333 299.667M192 299L193 300L192 299M266.667 299.333L267.333 299.667L266.667 299.333M435 299L436 300L435 299M231 300L232 301L231 300M433 300L434 301L433 300M439 300L440 301L439 300z"/>
<path style="fill:#949a9b; stroke:none;" d="M60 301L60 304L61 304L60 301z"/>
<path style="fill:#c1c1c1; stroke:none;" d="M192.667 301.333L193.333 301.667L192.667 301.333z"/>
<path style="fill:#949a9b; stroke:none;" d="M194.667 301.333L195.333 301.667L194.667 301.333z"/>
<path style="fill:#c1c1c1; stroke:none;" d="M271.333 301.667L271.667 302.333L271.333 301.667M438 301L439 302L438 301z"/>
<path style="fill:#949a9b; stroke:none;" d="M49 302L50 303L49 302z"/>
<path style="fill:#c1c1c1; stroke:none;" d="M184.667 302.333L185.333 302.667L184.667 302.333z"/>
<path style="fill:#949a9b; stroke:none;" d="M186 302L186 303L189 303L186 302z"/>
<path style="fill:#505050; stroke:none;" d="M78 316L78 323C107.337 320.685 136.812 316.084 166 312.282C176.411 310.925 191.31 313.056 196 302L78 316z"/>
<path style="fill:#c1c1c1; stroke:none;" d="M275.333 302.667L275.667 303.333L275.333 302.667M437 302L438 303L437 302M49.3333 303.667L49.6667 304.333L49.3333 303.667M176.667 303.333L177.333 303.667L176.667 303.333z"/>
<path style="fill:#949a9b; stroke:none;" d="M178 303L178 304L181 304L178 303M195 303L196 304L195 303z"/>
<path style="fill:#c1c1c1; stroke:none;" d="M433 303L434 304L433 303M168.667 304.333L169.333 304.667L168.667 304.333z"/>
<path style="fill:#949a9b; stroke:none;" d="M170 304L170 305L173 305L170 304z"/>
<path style="fill:#c1c1c1; stroke:none;" d="M272.333 304.667L272.667 305.333L272.333 304.667M438 304L439 305L438 304M160.667 305.333L161.333 305.667L160.667 305.333z"/>
<path style="fill:#949a9b; stroke:none;" d="M162 305L162 306L165 306L162 305M194 305L195 306L194 305z"/>
<path style="fill:#c1c1c1; stroke:none;" d="M232 305L233 306L232 305M276 305L277 306L276 305M152.667 306.333L153.333 306.667L152.667 306.333z"/>
<path style="fill:#949a9b; stroke:none;" d="M154 306L154 307L157 307L154 306M201 306L203 308L201 306z"/>
<path style="fill:#c1c1c1; stroke:none;" d="M435 306L436 307L435 306M439 306L440 307L439 306M61 307L61 310L62 310L61 307M143 307L143 308L146 308L143 307z"/>
<path style="fill:#949a9b; stroke:none;" d="M146 307L146 308L149 308L146 307M193 307L194 308L193 307M199 307L197 308L197 309L199 307z"/>
<path style="fill:#505050; stroke:none;" d="M200.667 307.333L201.333 307.667L200.667 307.333z"/>
<path style="fill:#c1c1c1; stroke:none;" d="M273 307L274 308L273 307M277 307L278 308L277 307M135 308L135 309L138 309L135 308z"/>
<path style="fill:#949a9b; stroke:none;" d="M138.667 308.333L139.333 308.667L138.667 308.333z"/>
<path style="fill:#c1c1c1; stroke:none;" d="M200.667 308.333L201.333 308.667L200.667 308.333M436 308L437 309L436 308M440 308L441 309L440 308M127 309L127 310L130 310L127 309z"/>
<path style="fill:#949a9b; stroke:none;" d="M130.667 309.333L131.333 309.667L130.667 309.333M189 309L189 310L192 310L189 309z"/>
<path style="fill:#c1c1c1; stroke:none;" d="M274 309L275 310L274 309M278 309L279 310L278 309z"/>
<path style="fill:#949a9b; stroke:none;" d="M61.3333 310.667L61.6667 311.333L61.3333 310.667z"/>
<path style="fill:#c1c1c1; stroke:none;" d="M119 310L119 311L122 311L119 310z"/>
<path style="fill:#949a9b; stroke:none;" d="M122.667 310.333L123.333 310.667L122.667 310.333M181.667 310.333L182.333 310.667L181.667 310.333z"/>
<path style="fill:#c1c1c1; stroke:none;" d="M183 310L183 311L186 311L183 310M204 310L205 311L204 310M437 310L438 311L437 310z"/>
<path style="fill:#949a9b; stroke:none;" d="M50 311L51 312L50 311z"/>
<path style="fill:#c1c1c1; stroke:none;" d="M111.667 311.333L112.333 311.667L111.667 311.333z"/>
<path style="fill:#949a9b; stroke:none;" d="M113 311L113 312L116 312L113 311M172 311L172 312L175 312L172 311z"/>
<path style="fill:#c1c1c1; stroke:none;" d="M175.667 311.333L176.333 311.667L175.667 311.333z"/>
<path style="fill:#5fe0e6; stroke:none;" d="M191 311L192 312L191 311z"/>
<path style="fill:#c1c1c1; stroke:none;" d="M275 311L276 312L275 311M279 311L280 312L279 311M441.333 311.667L441.667 312.333L441.333 311.667M50.3333 312.667L50.6667 313.333L50.3333 312.667M103.667 312.333L104.333 312.667L103.667 312.333z"/>
<path style="fill:#949a9b; stroke:none;" d="M105 312L105 313L108 313L105 312M164 312L164 313L167 313L164 312z"/>
<path style="fill:#c1c1c1; stroke:none;" d="M167.667 312.333L168.333 312.667L167.667 312.333M280 312L281 313L280 312M95.6667 313.333L96.3333 313.667L95.6667 313.333z"/>
<path style="fill:#949a9b; stroke:none;" d="M97 313L97 314L100 314L97 313M156 313L156 314L159 314L156 313z"/>
<path style="fill:#c1c1c1; stroke:none;" d="M159.667 313.333L160.333 313.667L159.667 313.333M206 313L207 314L206 313M276 313L277 314L276 313M438 313L438 316L439 316L438 313M87.6667 314.333L88.3333 314.667L87.6667 314.333z"/>
<path style="fill:#949a9b; stroke:none;" d="M89 314L89 315L92 315L89 314M148.667 314.333L149.333 314.667L148.667 314.333z"/>
<path style="fill:#c1c1c1; stroke:none;" d="M150 314L150 315L153 315L150 314M277 314L278 315L277 314M281 314L282 315L281 314M79.6667 315.333L80.3333 315.667L79.6667 315.333z"/>
<path style="fill:#949a9b; stroke:none;" d="M81 315L81 316L84 316L81 315M139 315L139 316L142 316L139 315z"/>
<path style="fill:#c1c1c1; stroke:none;" d="M142 315L142 316L145 316L142 315M282 315L283 316L282 315M62.3333 316.667L62.6667 317.333L62.3333 316.667z"/>
<path style="fill:#949a9b; stroke:none;" d="M77 316L77 319L78 319L77 316M131 316L131 317L134 317L131 316z"/>
<path style="fill:#c1c1c1; stroke:none;" d="M134.667 316.333L135.333 316.667L134.667 316.333M208 316L209 317L208 316M283 316L284 317L283 316z"/>
<path style="fill:#949a9b; stroke:none;" d="M123 317L123 318L126 318L123 317z"/>
<path style="fill:#c1c1c1; stroke:none;" d="M126.667 317.333L127.333 317.667L126.667 317.333M279 317L280 318L279 317M284 317L285 318L284 317M442 317L442 320L443 320L442 317z"/>
<path style="fill:#949a9b; stroke:none;" d="M62.3333 318.667L62.6667 319.333L62.3333 318.667M115.667 318.333L116.333 318.667L115.667 318.333z"/>
<path style="fill:#c1c1c1; stroke:none;" d="M117 318L117 319L120 319L117 318M280 318L281 319L280 318M285 318L286 319L285 318z"/>
<path style="fill:#949a9b; stroke:none;" d="M51 319L52 320L51 319z"/>
<path style="fill:#c1c1c1; stroke:none;" d="M77.3333 319.667L77.6667 320.333L77.3333 319.667z"/>
<path style="fill:#949a9b; stroke:none;" d="M107.667 319.333L108.333 319.667L107.667 319.333z"/>
<path style="fill:#c1c1c1; stroke:none;" d="M109 319L109 320L112 320L109 319M210 319L211 320L210 319M281 319L282 320L281 319M286 319L287 320L286 319M51.3333 320.667L51.6667 321.333L51.3333 320.667z"/>
<path style="fill:#949a9b; stroke:none;" d="M98 320L98 321L101 321L98 320z"/>
<path style="fill:#c1c1c1; stroke:none;" d="M101.667 320.333L102.333 320.667L101.667 320.333M282 320L283 321L282 320M354.667 320.333L355.333 320.667L354.667 320.333M438 320L438 323L439 323L438 320z"/>
<path style="fill:#949a9b; stroke:none;" d="M90 321L90 322L93 322L90 321z"/>
<path style="fill:#c1c1c1; stroke:none;" d="M93.6667 321.333L94.3333 321.667L93.6667 321.333M283 321L284 322L283 321M289 321L290 322L289 321M329.667 321.333L330.333 321.667L329.667 321.333M353 321L354 322L353 321z"/>
<path style="fill:#949a9b; stroke:none;" d="M82.6667 322.333L83.3333 322.667L82.6667 322.333z"/>
<path style="fill:#c1c1c1; stroke:none;" d="M84 322L84 323L87 323L84 322M212 322L213 323L212 322M327 322L328 323L327 322M331 322L332 323L331 322M78 323L79 324L78 323M286 323L287 324L286 323M292 323L293 324L292 323M326 323L327 324L326 323M333 323L334 324L333 323M350 323L351 324L350 323M358 323L359 324L358 323M63.3333 324.667L63.6667 325.333L63.3333 324.667M287 324L288 325L287 324M294 324L295 325L294 324M324 324L325 325L324 324M335 324L336 325L335 324M347.667 324.333L348.333 324.667L347.667 324.333M441.333 324.667L441.667 325.333L441.333 324.667M289 325L290 326L289 325M297 325L298 326L297 325M321 325L322 326L321 325M329 325L330 326L329 325M338 325L338 326L345 326L338 325z"/>
<path style="fill:#5fe0e6; stroke:none;" d="M343 329L346 336L356 325L343 329z"/>
<path style="fill:#c1c1c1; stroke:none;" d="M361 325L362 326L361 325M437 325L438 326L437 325z"/>
<path style="fill:#949a9b; stroke:none;" d="M63 326L63 329L64 329L63 326z"/>
<path style="fill:#c1c1c1; stroke:none;" d="M290 326L291 327L290 326M300 326L301 327L300 326M317 326L317 327L320 327L317 326M328 326L329 327L328 326M331 326L332 327L331 326M362 326L363 327L362 326z"/>
<path style="fill:#949a9b; stroke:none;" d="M52 327L53 328L52 327z"/>
<path style="fill:#c1c1c1; stroke:none;" d="M292 327L293 328L292 327M304 327L304 328L315 328L304 327M326 327L327 328L326 327M333 327L334 328L333 327M358 327L359 328L358 327M364 327L365 328L364 327M436 327L437 328L436 327M440 327L441 328L440 327M52.3333 328.667L52.6667 329.333L52.3333 328.667M295 328L296 329L295 328M323 328L324 329L323 328M336.667 328.333L337.333 328.667L336.667 328.333M359 328L360 329L359 328M366 328L367 329L366 328M392 328L393 329L392 328M396 328L397 329L396 328M297.667 329.333L298.333 329.667L297.667 329.333M320.667 329.333L321.333 329.667L320.667 329.333M361 329L362 330L361 329M368.667 329.333L369.333 329.667L368.667 329.333M390 329L391 330L390 329M301 330L301 331L304 331L301 330M315 330L315 331L318 331L315 330M362 330L363 331L362 330M371.667 330.333L372.333 330.667L371.667 330.333M386.667 330.333L387.333 330.667L386.667 330.333M397 330L398 331L397 330M204.667 331.333L205.333 331.667L204.667 331.333z"/>
<path style="fill:#949a9b; stroke:none;" d="M206 331L206 332L209 333L206 331z"/>
<path style="fill:#c1c1c1; stroke:none;" d="M364 331L365 332L364 331M377 331L377 332L383 332L377 331M398 331L399 332L398 331M434 331L435 332L434 331M438 331L439 332L438 331M64.3333 332.667L64.6667 333.333L64.3333 332.667M196.667 332.333L197.333 332.667L196.667 332.333z"/>
<path style="fill:#949a9b; stroke:none;" d="M198 332L198 333L201 333L198 332z"/>
<path style="fill:#505050; stroke:none;" d="M81 347L82 354C114.731 351.417 147.364 345.614 180 341.95C187.673 341.088 195.342 340.068 202.995 339.046C205.421 338.722 209.804 337.848 208.338 334.274C207.19 331.477 203.336 332.13 201 332.425L178 335.282C146.052 339.444 113.178 345.618 81 347z"/>
<path style="fill:#c1c1c1; stroke:none;" d="M366.667 332.333L367.333 332.667L366.667 332.333M392 332L393 333L392 332M433 332L434 333L433 332M188.667 333.333L189.333 333.667L188.667 333.333z"/>
<path style="fill:#949a9b; stroke:none;" d="M190 333L190 334L193 334L190 333z"/>
<path style="fill:#c1c1c1; stroke:none;" d="M369.667 333.333L370.333 333.667L369.667 333.333M388.667 333.333L389.333 333.667L388.667 333.333M395 333L396 334L395 333M432 333L433 334L432 333M437 333L438 334L437 333z"/>
<path style="fill:#949a9b; stroke:none;" d="M64 334L64 337L65 337L64 334z"/>
<path style="fill:#c1c1c1; stroke:none;" d="M180.667 334.333L181.333 334.667L180.667 334.333z"/>
<path style="fill:#949a9b; stroke:none;" d="M182 334L182 335L185 335L182 334M233 334L234 335L233 334z"/>
<path style="fill:#c1c1c1; stroke:none;" d="M345 334L346 335L345 334M373 334L373 335L377 335L373 334M382 334L382 335L386 335L382 334M396 334L397 335L396 334M431 334L432 335L431 334M436 334L437 335L436 334z"/>
<path style="fill:#949a9b; stroke:none;" d="M53 335L54 336L53 335z"/>
<path style="fill:#c1c1c1; stroke:none;" d="M172.667 335.333L173.333 335.667L172.667 335.333z"/>
<path style="fill:#949a9b; stroke:none;" d="M174 335L174 336L177 336L174 335z"/>
<path style="fill:#c1c1c1; stroke:none;" d="M430 335L431 336L430 335M435 335L436 336L435 335M53.3333 336.667L53.6667 337.333L53.3333 336.667M163 336L163 337L166 337L163 336z"/>
<path style="fill:#949a9b; stroke:none;" d="M166 336L166 337L169 337L166 336z"/>
<path style="fill:#c1c1c1; stroke:none;" d="M209 336L209 339L210 339L209 336z"/>
<path style="fill:#949a9b; stroke:none;" d="M232 336L233 337L232 336z"/>
<path style="fill:#c1c1c1; stroke:none;" d="M235.333 336.667L235.667 337.333L235.333 336.667M403 336L404 337L403 336M429 336L430 337L429 336M434 336L435 337L434 336M155 337L155 338L158 338L155 337z"/>
<path style="fill:#949a9b; stroke:none;" d="M158.667 337.333L159.333 337.667L158.667 337.333z"/>
<path style="fill:#c1c1c1; stroke:none;" d="M383 337L383 338L387 338L383 337z"/>
<path style="fill:#949a9b; stroke:none;" d="M387 337.53C364.432 339.502 367.527 373.021 390 370.894C410.913 368.915 407.885 335.705 387 337.53z"/>
<path style="fill:#c1c1c1; stroke:none;" d="M390.667 337.333L391.333 337.667L390.667 337.333M427 337L428 338L427 337M433 337L434 338L433 337M147 338L147 339L150 339L147 338z"/>
<path style="fill:#949a9b; stroke:none;" d="M150.667 338.333L151.333 338.667L150.667 338.333M207.667 338.333L208.333 338.667L207.667 338.333M235 338L236 339L235 338z"/>
<path style="fill:#c1c1c1; stroke:none;" d="M381 338L382 339L381 338M394 338L395 339L394 338M400 338L401 339L400 338M406 338L407 339L406 338M425 338L426 339L425 338M432 338L433 339L432 338M139 339L139 340L142 340L139 339z"/>
<path style="fill:#949a9b; stroke:none;" d="M142.667 339.333L143.333 339.667L142.667 339.333M199 339L199 340L202 340L199 339z"/>
<path style="fill:#c1c1c1; stroke:none;" d="M202.667 339.333L203.333 339.667L202.667 339.333z"/>
<path style="fill:#949a9b; stroke:none;" d="M230 339L231 340L230 339z"/>
<path style="fill:#c1c1c1; stroke:none;" d="M379 339L380 340L379 339M396 339L397 340L396 339M401 339L402 340L401 339M409 339L410 340L409 339M422.667 339.333L423.333 339.667L422.667 339.333M431 339L432 340L431 339M65.3333 340.667L65.6667 341.333L65.3333 340.667M131.667 340.333L132.333 340.667L131.667 340.333z"/>
<path style="fill:#949a9b; stroke:none;" d="M133 340L133 341L136 341L133 340M191 340L191 341L194 341L191 340z"/>
<path style="fill:#c1c1c1; stroke:none;" d="M194.667 340.333L195.333 340.667L194.667 340.333M377 340L378 341L377 340M386 340L386 341L390 341L386 340M403 340L404 341L403 340M412 340L412 341L421 341L412 340M429 340L430 341L429 340M123.667 341.333L124.333 341.667L123.667 341.333z"/>
<path style="fill:#949a9b; stroke:none;" d="M125 341L125 342L128 342L125 341M183.667 341.333L184.333 341.667L183.667 341.333z"/>
<path style="fill:#c1c1c1; stroke:none;" d="M185 341L185 342L188 342L185 341M224.333 341.667L224.667 342.333L224.333 341.667M376 341L377 342L376 341M383 341L384 342L383 341z"/>
<path style="fill:#fdffff; stroke:none;" d="M384 341.653C367.56 346.788 375.625 372.414 391.999 366.887C407.958 361.501 400.213 336.588 384 341.653z"/>
<path style="fill:#c1c1c1; stroke:none;" d="M392 341L393 342L392 341M399 341L400 342L399 341M404.667 341.333L405.333 341.667L404.667 341.333M427 341L428 342L427 341z"/>
<path style="fill:#949a9b; stroke:none;" d="M65 342L65 345L66 345L65 342z"/>
<path style="fill:#c1c1c1; stroke:none;" d="M115.667 342.333L116.333 342.667L115.667 342.333z"/>
<path style="fill:#949a9b; stroke:none;" d="M117 342L117 343L120 343L117 342M175.667 342.333L176.333 342.667L175.667 342.333z"/>
<path style="fill:#c1c1c1; stroke:none;" d="M177 342L177 343L180 343L177 342z"/>
<path style="fill:#949a9b; stroke:none;" d="M228 342L229 343L228 342z"/>
<path style="fill:#c1c1c1; stroke:none;" d="M375 342L376 343L375 342M381 342L382 343L381 342M394 342L395 343L394 342M400 342L401 343L400 342M407 342L408 343L407 342M425 342L426 343L425 342z"/>
<path style="fill:#949a9b; stroke:none;" d="M54 343L55 344L54 343z"/>
<path style="fill:#c1c1c1; stroke:none;" d="M107.667 343.333L108.333 343.667L107.667 343.333z"/>
<path style="fill:#949a9b; stroke:none;" d="M109 343L109 344L112 344L109 343M167.667 343.333L168.333 343.667L167.667 343.333z"/>
<path style="fill:#c1c1c1; stroke:none;" d="M169 343L169 344L172 344L169 343z"/>
<path style="fill:#949a9b; stroke:none;" d="M226 343L227 344L226 343z"/>
<path style="fill:#c1c1c1; stroke:none;" d="M374 343L375 344L374 343M379 343L380 344L379 343M396 343L397 344L396 343M410.667 343.333L411.333 343.667L410.667 343.333M421.667 343.333L422.333 343.667L421.667 343.333M54.3333 344.667L54.6667 345.333L54.3333 344.667M99.6667 344.333L100.333 344.667L99.6667 344.333z"/>
<path style="fill:#949a9b; stroke:none;" d="M101 344L101 345L104 345L101 344M159.667 344.333L160.333 344.667L159.667 344.333z"/>
<path style="fill:#c1c1c1; stroke:none;" d="M161.667 344.333L162.333 344.667L161.667 344.333M236.333 344.667L236.667 345.333L236.333 344.667M378 344L379 345L378 344M397 344L398 345L397 344M90 345L90 346L93 346L90 345z"/>
<path style="fill:#949a9b; stroke:none;" d="M93 345L93 346L96 346L93 345M150 345L150 346L153 346L150 345z"/>
<path style="fill:#c1c1c1; stroke:none;" d="M153.667 345.333L154.333 345.667L153.667 345.333M377 345L378 346L377 345M398 345L399 346L398 345M402 345L403 346L402 345M82 346L82 347L85 347L82 346z"/>
<path style="fill:#949a9b; stroke:none;" d="M85.6667 346.333L86.3333 346.667L85.6667 346.333M142 346L142 347L145 347L142 346z"/>
<path style="fill:#c1c1c1; stroke:none;" d="M145.667 346.333L146.333 346.667L145.667 346.333z"/>
<path style="fill:#949a9b; stroke:none;" d="M225 346L225 349L226 349L225 346M236 346L237 347L236 346z"/>
<path style="fill:#c1c1c1; stroke:none;" d="M372 346L373 347L372 346M376 346L377 347L376 346z"/>
<path style="fill:#949a9b; stroke:none;" d="M134 347L134 348L137 348L134 347z"/>
<path style="fill:#c1c1c1; stroke:none;" d="M137.667 347.333L138.333 347.667L137.667 347.333M399 347L400 348L399 347M403 347L404 348L403 347M66 348L66 351L67 351L66 348z"/>
<path style="fill:#949a9b; stroke:none;" d="M126 348L126 349L129 349L126 348z"/>
<path style="fill:#c1c1c1; stroke:none;" d="M129.667 348.333L130.333 348.667L129.667 348.333M371.333 348.667L371.667 349.333L371.333 348.667M375 348L376 349L375 348z"/>
<path style="fill:#949a9b; stroke:none;" d="M81 349L81 352L82 352L81 349M118 349L118 350L121 350L118 349z"/>
<path style="fill:#c1c1c1; stroke:none;" d="M121.667 349.333L122.333 349.667L121.667 349.333M225.333 349.667L225.667 350.333L225.333 349.667M400 349L401 350L400 349M404 349L404 352L405 352L404 349z"/>
<path style="fill:#949a9b; stroke:none;" d="M110.667 350.333L111.333 350.667L110.667 350.333z"/>
<path style="fill:#c1c1c1; stroke:none;" d="M112 350L112 351L115 351L112 350z"/>
<path style="fill:#949a9b; stroke:none;" d="M55 351L56 352L55 351M66.3333 351.667L66.6667 352.333L66.3333 351.667M102.667 351.333L103.333 351.667L102.667 351.333z"/>
<path style="fill:#c1c1c1; stroke:none;" d="M104 351L104 352L107 352L104 351M374 351L374 354L375 354L374 351M55.3333 352.667L55.6667 353.333L55.3333 352.667M81.3333 352.667L81.6667 353.333L81.3333 352.667z"/>
<path style="fill:#949a9b; stroke:none;" d="M94.6667 352.333L95.3333 352.667L94.6667 352.333z"/>
<path style="fill:#c1c1c1; stroke:none;" d="M96 352L96 353L99 353L96 352M237.333 352.667L237.667 353.333L237.333 352.667M401 352L401 357L402 357L401 352z"/>
<path style="fill:#949a9b; stroke:none;" d="M86.6667 353.333L87.3333 353.667L86.6667 353.333z"/>
<path style="fill:#c1c1c1; stroke:none;" d="M88 353L88 354L91 354L88 353z"/>
<path style="fill:#949a9b; stroke:none;" d="M237 354L237 357L238 357L237 354z"/>
<path style="fill:#c1c1c1; stroke:none;" d="M374 355L374 358L375 358L374 355M67 356L67 359L68 359L67 356M237 357L237 360L238 360L237 357M404.333 357.667L404.667 358.333L404.333 357.667M225 358L226 359L225 358z"/>
<path style="fill:#949a9b; stroke:none;" d="M56.3333 359.667L56.6667 360.333L56.3333 359.667M67.3333 359.667L67.6667 360.333L67.3333 359.667M225 359L226 360L225 359z"/>
<path style="fill:#c1c1c1; stroke:none;" d="M371 359L372 360L371 359M375 359L376 360L375 359M400 359L401 360L400 359M56 361L57 362L56 361M224 361L225 362L224 361z"/>
<path style="fill:#949a9b; stroke:none;" d="M236.333 361.667L236.667 362.333L236.333 361.667z"/>
<path style="fill:#c1c1c1; stroke:none;" d="M372 361L373 362L372 361M376 361L377 362L376 361M399 361L400 362L399 361M403 361L404 362L403 361z"/>
<path style="fill:#949a9b; stroke:none;" d="M223 363L224 364L223 363z"/>
<path style="fill:#c1c1c1; stroke:none;" d="M373 363L374 364L373 363M402 363L403 364L402 363M222 364L223 365L222 364M378 364L379 365L378 364M401 364L402 365L401 364M68.3333 365.667L68.6667 366.333L68.3333 365.667M221 365L222 366L221 365M235 365L236 366L235 365M395 365L396 366L395 365M400 365L401 366L400 365M381 366L382 367L381 366M393 366L394 367L393 366M399 366L400 367L399 366z"/>
<path style="fill:#949a9b; stroke:none;" d="M68.3333 367.667L68.6667 368.333L68.3333 367.667z"/>
<path style="fill:#c1c1c1; stroke:none;" d="M219 367L220 368L219 367M234 367L235 368L234 367M384.667 367.333L385.333 367.667L384.667 367.333M390.667 367.333L391.333 367.667L390.667 367.333M398 367L399 368L398 367z"/>
<path style="fill:#949a9b; stroke:none;" d="M57 368L58 369L57 368M218 368L219 369L218 368M233 368L234 369L233 368z"/>
<path style="fill:#c1c1c1; stroke:none;" d="M378 368L379 369L378 368M397 368L398 369L397 368M405.667 368.333L406.333 368.667L405.667 368.333z"/>
<path style="fill:#949a9b; stroke:none;" d="M407 368.587C392.344 372.415 398.405 394.559 412.999 390.427C426.703 386.547 420.7 365.009 407 368.587z"/>
<path style="fill:#c1c1c1; stroke:none;" d="M412.667 368.333L413.333 368.667L412.667 368.333M57 369L58 370L57 369M215 369L216 370L215 369z"/>
<path style="fill:#949a9b; stroke:none;" d="M216 369L217 370L216 369z"/>
<path style="fill:#c1c1c1; stroke:none;" d="M380 369L381 370L380 369M395 369L396 370L395 369M403 369L404 370L403 369M415 369L416 370L415 369M210.667 370.333L211.333 370.667L210.667 370.333z"/>
<path style="fill:#949a9b; stroke:none;" d="M212 370L213 371L212 370M232 370L233 371L232 370z"/>
<path style="fill:#c1c1c1; stroke:none;" d="M382 370L383 371L382 370M393 370L394 371L393 370M402 370L403 371L402 370M202.667 371.333L203.333 371.667L202.667 371.333z"/>
<path style="fill:#949a9b; stroke:none;" d="M204 371L204 372L207 372L204 371M231 371L232 372L231 371z"/>
<path style="fill:#c1c1c1; stroke:none;" d="M385 371L385 372L390 372L385 371M401 371L402 372L401 371M407 371L407 372L412 372L407 371M69 372L70 373L69 372M194 372L194 373L197 373L194 372z"/>
<path style="fill:#949a9b; stroke:none;" d="M197.667 372.333L198.333 372.667L197.667 372.333z"/>
<path style="fill:#c1c1c1; stroke:none;" d="M400 372L401 373L400 372M405 372L402 376L405 372z"/>
<path style="fill:#fdffff; stroke:none;" d="M406.059 373.029C397.712 377.552 404.294 390.941 412.945 386.667C422.247 382.07 415.134 368.111 406.059 373.029z"/>
<path style="fill:#c1c1c1; stroke:none;" d="M413 372L414 373L413 372z"/>
<path style="fill:#949a9b; stroke:none;" d="M69.3333 373.667L69.6667 374.333L69.3333 373.667z"/>
<path style="fill:#c1c1c1; stroke:none;" d="M185 373L185 374L188 374L185 373z"/>
<path style="fill:#949a9b; stroke:none;" d="M188 373L188 374L191 374L188 373z"/>
<path style="fill:#c1c1c1; stroke:none;" d="M399 373L400 374L399 373M415 373L416 374L415 373M419 373L420 374L419 373M177.667 374.333L178.333 374.667L177.667 374.333z"/>
<path style="fill:#949a9b; stroke:none;" d="M179 374L179 375L182 375L179 374M58 375L59 376L58 375z"/>
<path style="fill:#c1c1c1; stroke:none;" d="M168.667 375.333L169.333 375.667L168.667 375.333z"/>
<path style="fill:#949a9b; stroke:none;" d="M170 375L170 376L173 376L170 375M227 375L228 376L227 375z"/>
<path style="fill:#c1c1c1; stroke:none;" d="M398.333 375.667L398.667 376.333L398.333 375.667M420 375L421 376L420 375M58 376L59 377L58 376z"/>
<path style="fill:#949a9b; stroke:none;" d="M70 376L71 377L70 376z"/>
<path style="fill:#c1c1c1; stroke:none;" d="M161.667 376.333L162.333 376.667L161.667 376.333z"/>
<path style="fill:#949a9b; stroke:none;" d="M163.667 376.333L164.333 376.667L163.667 376.333M226 376L227 377L226 376z"/>
<path style="fill:#c1c1c1; stroke:none;" d="M417.333 376.667L417.667 377.333L417.333 376.667M153.667 377.333L154.333 377.667L153.667 377.333z"/>
<path style="fill:#949a9b; stroke:none;" d="M155 377L155 378L158 378L155 377z"/>
<path style="fill:#c1c1c1; stroke:none;" d="M225 377L226 378L225 377M401 377L401 382L402 382L401 377z"/>
<path style="fill:#949a9b; stroke:none;" d="M71 378L72 379L71 378z"/>
<path style="fill:#c1c1c1; stroke:none;" d="M145.667 378.333L146.333 378.667L145.667 378.333z"/>
<path style="fill:#949a9b; stroke:none;" d="M147 378L147 379L150 379L147 378M223 378L224 379L223 378z"/>
<path style="fill:#c1c1c1; stroke:none;" d="M421 378L421 381L422 381L421 378z"/>
<path style="fill:#949a9b; stroke:none;" d="M59 379L60 380L59 379z"/>
<path style="fill:#c1c1c1; stroke:none;" d="M72 379L73 380L72 379M137.667 379.333L138.333 379.667L137.667 379.333z"/>
<path style="fill:#949a9b; stroke:none;" d="M139 379L139 380L142 380L139 379M221 379L222 380L221 379z"/>
<path style="fill:#c1c1c1; stroke:none;" d="M222 379L223 380L222 379M59 380L60 381L59 380M128.667 380.333L129.333 380.667L128.667 380.333z"/>
<path style="fill:#949a9b; stroke:none;" d="M130 380L130 381L133 381L130 380M219 380L220 381L219 380z"/>
<path style="fill:#c1c1c1; stroke:none;" d="M120 381L120 382L123 382L120 381z"/>
<path style="fill:#949a9b; stroke:none;" d="M123.667 381.333L124.333 381.667L123.667 381.333M213.667 381.333L214.333 381.667L213.667 381.333z"/>
<path style="fill:#c1c1c1; stroke:none;" d="M215 381L216 382L215 381M417.333 381.667L417.667 382.333L417.333 381.667z"/>
<path style="fill:#949a9b; stroke:none;" d="M60 382L61 383L60 382z"/>
<path style="fill:#c1c1c1; stroke:none;" d="M75 382L76 383L75 382M112.667 382.333L113.333 382.667L112.667 382.333z"/>
<path style="fill:#949a9b; stroke:none;" d="M114.667 382.333L115.333 382.667L114.667 382.333M205.667 382.333L206.333 382.667L205.667 382.333z"/>
<path style="fill:#c1c1c1; stroke:none;" d="M207 382L208 383L207 382M398.333 382.667L398.667 383.333L398.333 382.667M76 383L77 384L76 383M104.667 383.333L105.333 383.667L104.667 383.333z"/>
<path style="fill:#949a9b; stroke:none;" d="M106 383L106 384L109 384L106 383M197.667 383.333L198.333 383.667L197.667 383.333z"/>
<path style="fill:#c1c1c1; stroke:none;" d="M199.667 383.333L200.333 383.667L199.667 383.333M402 383L403 384L402 383M61 384L62 385L61 384M78 384L79 385L78 384M96.6667 384.333L97.3333 384.667L96.6667 384.333z"/>
<path style="fill:#949a9b; stroke:none;" d="M98 384L98 385L101 385L98 384M189 384L190 385L189 384z"/>
<path style="fill:#c1c1c1; stroke:none;" d="M190.667 384.333L191.333 384.667L190.667 384.333M416 384L417 385L416 384M420 384L421 385L420 384z"/>
<path style="fill:#949a9b; stroke:none;" d="M62 385L63 386L62 385M80 385L81 386L80 385z"/>
<path style="fill:#c1c1c1; stroke:none;" d="M81.6667 385.333L82.3333 385.667L81.6667 385.333M87 385L87 386L90 386L87 385z"/>
<path style="fill:#949a9b; stroke:none;" d="M90 385L90 386L93 386L90 385M181 385L182 386L181 385z"/>
<path style="fill:#c1c1c1; stroke:none;" d="M182.667 385.333L183.333 385.667L182.667 385.333M399 385L400 386L399 385M415 385L416 386L415 385z"/>
<path style="fill:#949a9b; stroke:none;" d="M173 386L174 387L173 386z"/>
<path style="fill:#c1c1c1; stroke:none;" d="M174.667 386.333L175.333 386.667L174.667 386.333M405 386L406 387L405 386M414 386L415 387L414 386M425 386L426 387L425 386z"/>
<path style="fill:#949a9b; stroke:none;" d="M426.059 386.786C419.094 389.229 423.055 399.838 429.941 397.377C436.888 394.895 432.998 384.353 426.059 386.786z"/>
<path style="fill:#c1c1c1; stroke:none;" d="M430 386L431 387L430 386M63 387L64 388L63 387z"/>
<path style="fill:#949a9b; stroke:none;" d="M165 387L166 388L165 387z"/>
<path style="fill:#c1c1c1; stroke:none;" d="M166.667 387.333L167.333 387.667L166.667 387.333M407 387L408 388L407 387M411.667 387.333L412.333 387.667L411.667 387.333M418 387L419 388L418 387M423 387L424 388L423 387M432 387L433 388L432 387M64 388L65 389L64 388z"/>
<path style="fill:#949a9b; stroke:none;" d="M157 388L158 389L157 388z"/>
<path style="fill:#c1c1c1; stroke:none;" d="M158.667 388.333L159.333 388.667L158.667 388.333M417 388L418 389L417 388M65 389L66 390L65 389z"/>
<path style="fill:#949a9b; stroke:none;" d="M149 389L150 390L149 389z"/>
<path style="fill:#c1c1c1; stroke:none;" d="M150.667 389.333L151.333 389.667L150.667 389.333M403 389L404 390L403 389M427.667 389.333L428.333 389.667L427.667 389.333M66 390L67 391L66 390z"/>
<path style="fill:#949a9b; stroke:none;" d="M141 390L142 391L141 390z"/>
<path style="fill:#c1c1c1; stroke:none;" d="M142.667 390.333L143.333 390.667L142.667 390.333M405 390L406 391L405 390M413.667 390.333L414.333 390.667L413.667 390.333M425 390L426 391L425 390z"/>
<path style="fill:#fdffff; stroke:none;" d="M425 391C426.975 394.472 429.025 394.472 431 391L425 391z"/>
<path style="fill:#c1c1c1; stroke:none;" d="M430 390L431 391L430 390M67 391L68 392L67 391z"/>
<path style="fill:#949a9b; stroke:none;" d="M132.667 391.333L133.333 391.667L132.667 391.333z"/>
<path style="fill:#c1c1c1; stroke:none;" d="M134 391L135 392L134 391M408 391L408 392L411 392L408 391M421.333 391.667L421.667 392.333L421.333 391.667M434.333 391.667L434.667 392.333L434.333 391.667z"/>
<path style="fill:#949a9b; stroke:none;" d="M69 392L70 393L69 392M125 392L126 393L125 392z"/>
<path style="fill:#c1c1c1; stroke:none;" d="M126.667 392.333L127.333 392.667L126.667 392.333z"/>
<path style="fill:#949a9b; stroke:none;" d="M70 393L71 394L70 393M117 393L118 394L117 393z"/>
<path style="fill:#c1c1c1; stroke:none;" d="M118.667 393.333L119.333 393.667L118.667 393.333M425 393L426 394L425 393M430 393L431 394L430 393z"/>
<path style="fill:#949a9b; stroke:none;" d="M72 394L73 395L72 394M108 394L109 395L108 394z"/>
<path style="fill:#c1c1c1; stroke:none;" d="M109.667 394.333L110.333 394.667L109.667 394.333M426 394L427 395L426 394M429 394L430 395L429 394M74 395L75 396L74 395z"/>
<path style="fill:#949a9b; stroke:none;" d="M100 395L101 396L100 395z"/>
<path style="fill:#c1c1c1; stroke:none;" d="M101.667 395.333L102.333 395.667L101.667 395.333M422 395L423 396L422 395M433 395L434 396L433 395M76 396L77 397L76 396z"/>
<path style="fill:#949a9b; stroke:none;" d="M77 396L78 397L77 396M92.6667 396.333L93.3333 396.667L92.6667 396.333z"/>
<path style="fill:#c1c1c1; stroke:none;" d="M94 396L95 397L94 396M423 396L424 397L423 396M432 396L433 397L432 396M80.6667 397.333L81.3333 397.667L80.6667 397.333z"/>
<path style="fill:#949a9b; stroke:none;" d="M82.6667 397.333L83.3333 397.667L82.6667 397.333z"/>
<path style="fill:#c1c1c1; stroke:none;" d="M84 397L84 398L87 398L84 397M424 397L425 398L424 397M431 397L432 398L431 397M427 398L427 399L430 399L427 398z"/>
</svg>
